<svg xmlns="http://www.w3.org/2000/svg" viewBox="0 0 1080 260" role="img" aria-label="Dark-Player-jake">
  <defs>
    <linearGradient id="g" x1="0" y1="0" x2="1" y2="0">
      <stop offset="0" stop-color="#ff2e97"/>
      <stop offset=".5" stop-color="#ff8a3d"/>
      <stop offset="1" stop-color="#22d3ee"/>
    </linearGradient>
    <radialGradient id="glow" cx="50%" cy="120%" r="90%">
      <stop offset="0" stop-color="#ff2e97" stop-opacity=".40"/>
      <stop offset="1" stop-color="#ff2e97" stop-opacity="0"/>
    </radialGradient>
  </defs>
  <rect width="1080" height="260" rx="14" fill="#0a0416"/>
  <rect width="1080" height="260" rx="14" fill="url(#glow)"/>
  <g stroke="#ffffff" stroke-opacity="0.06">
    <line x1="0" y1="65" x2="1080" y2="65"/>
    <line x1="0" y1="130" x2="1080" y2="130"/>
    <line x1="0" y1="195" x2="1080" y2="195"/>
    <line x1="180" y1="0" x2="180" y2="260"/>
    <line x1="360" y1="0" x2="360" y2="260"/>
    <line x1="540" y1="0" x2="540" y2="260"/>
    <line x1="720" y1="0" x2="720" y2="260"/>
    <line x1="900" y1="0" x2="900" y2="260"/>
  </g>
  <g fill="#22d3ee">
    <rect x="113" y="92" width="18" height="18"/><rect x="131" y="92" width="18" height="18"/><rect x="149" y="92" width="18" height="18"/>
    <rect x="95" y="110" width="18" height="18"/><rect x="167" y="110" width="18" height="18"/>
    <rect x="95" y="128" width="18" height="18"/><rect x="167" y="128" width="18" height="18"/>
    <rect x="113" y="146" width="18" height="18"/><rect x="149" y="146" width="18" height="18"/>
    <rect x="131" y="164" width="18" height="18"/>
  </g>
  <g fill="#ff2e97">
    <rect x="113" y="110" width="18" height="18"/><rect x="149" y="110" width="18" height="18"/>
  </g>
  <text x="215" y="128" font-family="Segoe UI, Helvetica, Arial, sans-serif" font-weight="900" font-size="62" letter-spacing="1" fill="url(#g)">DARK-PLAYER-JAKE</text>
  <text x="217" y="170" font-family="Consolas, ui-monospace, monospace" font-size="21" letter-spacing="4">
    <tspan fill="#22d3ee">&#9654;</tspan><tspan fill="#c7cbe0" dx="10">SPIELE &#183; TOOLS &#183; 3D-WEB</tspan>
  </text>
</svg>
